Coordinates
version=1
nRows=9
nColumns=24
inDegrees=yes

Units are S.I. units (second, meters, Newtons, ...)
Angles are in degrees.

endheader
time	pelvis_tilt	pelvis_list	pelvis_rotation	pelvis_tx	pelvis_ty	pelvis_tz	hip_flexion_r	hip_adduction_r	hip_rotation_r	knee_angle_r	ankle_angle_r	subtalar_angle_r	mtp_angle_r	hip_flexion_l	hip_adduction_l	hip_rotation_l	knee_angle_l	ankle_angle_l	subtalar_angle_l	mtp_angle_l	lumbar_extension	lumbar_bending	lumbar_rotation
      0.52100000	     -1.85145661	     -0.01145654	      9.19267809	     -0.80188990	      0.88912940	      0.27896367	     26.96694924	     -1.02502805	     -9.61760358	     -1.84903452	      3.41657321	     -0.25469541	      4.62489442	    -18.02534511	     -0.91996668	      4.41908944	     -7.70952657	     13.83957559	      2.49251915	     12.22311592	     -4.65034171	     -1.42432548	    -10.09502143
      0.52516667	     -1.88591839	     -0.09617888	      9.23701192	     -0.79579097	      0.88804571	      0.27948569	     27.12711439	     -0.88031763	     -9.34383972	     -2.44942428	      3.32554383	     -0.17327915	      4.59419113	    -18.03731129	     -1.10807437	      4.37931569	     -8.42602006	     13.91453894	      2.58830959	     12.29796899	     -4.58693881	     -1.29675858	    -10.01041809
      0.52933333	     -1.89511752	     -0.21892691	      9.27364606	     -0.78961935	      0.88702611	      0.28006425	     27.23380301	     -0.67654315	     -9.03507693	     -3.05165913	      3.10047204	     -0.30512181	      4.58162755	    -18.02163216	     -1.34912423	      4.21196671	     -9.24964663	     14.01725600	      2.87365459	     12.42974296	     -4.55882786	     -1.13319860	    -10.05095855
      0.53350000	     -1.86655255	     -0.35070517	      9.31159553	     -0.78339354	      0.88609389	      0.28066105	     27.29953789	     -0.45283429	     -8.77227597	     -3.70640814	      2.78666390	     -0.55052198	      4.59569595	    -18.03334443	     -1.61636153	      3.98199212	    -10.09545851	     14.03090744	      3.30128824	     12.67614179	     -4.56548403	     -0.96256625	    -10.06679558
      0.53766667	     -1.83563490	     -0.49699764	      9.33439003	     -0.77712322	      0.88517486	      0.28127551	     27.36409876	     -0.20541076	     -8.51952892	     -4.40436761	      2.43009953	     -0.83581531	      4.64053245	    -18.04064341	     -1.89077993	      3.77768591	    -10.97058371	     14.03614422	      3.59490666	     12.98157039	     -4.55881053	     -0.75960733	    -10.06608247
      0.54183333	     -1.79607167	     -0.65189961	      9.34186590	     -0.77078790	      0.88430678	      0.28191668	     27.41563890	      0.06291560	     -8.27597470	     -5.13244592	      2.01335576	     -1.18726221	      4.71779880	    -18.03888391	     -2.17192338	      3.55307197	    -11.88061218	     14.00408613	      3.89284409	     13.37349266	     -4.55311202	     -0.54687408	    -10.04469325
      0.54600000	     -1.77113546	     -0.82980860	      9.33972227	     -0.76439737	      0.88344898	      0.28256963	     27.48577015	      0.35666861	     -8.06743246	     -5.89319135	      1.55457106	     -1.51377272	      4.78824107	    -18.01174366	     -2.46757522	      3.36085187	    -12.81485660	     13.91543443	      4.04476157	     13.69292160	     -4.52659541	     -0.30096457	    -10.00825132
      0.55016667	     -1.66698912	     -0.98976124	      9.32452612	     -0.75799277	      0.88272505	      0.28327051	     27.47149868	      0.65826042	     -7.85147941	     -6.68099998	      1.04664866	     -2.04305469	      4.97564945	    -18.04123739	     -2.77014567	      3.04133635	    -13.80966740	     13.79211048	      4.45060106	     14.44970746	     -4.60377046	     -0.07812396	     -9.95658488
      0.55433333	     -1.66070682	     -1.14754047	      9.31150250	     -0.75154740	      0.88192832	      0.28392254	     27.57210681	      0.93277700	     -7.69343827	     -7.51156978	      0.47121413	     -2.51761061	      5.11691391	    -17.95595198	     -3.03137080	      2.88571164	    -14.82177041	     13.58979871	      4.53314319	     15.02496761	     -4.51524734	      0.14741316	     -9.87718799
